<svg width="313" height="515" viewBox="0 0 313 515" fill="none" xmlns="http://www.w3.org/2000/svg">
<g id="congratulation 1" clip-path="url(#clip0_87_185)">
<path id="Vector" d="M77.551 130.638C72.169 101.256 55.5488 84.9255 44.615 91.6056C33.6813 98.2858 25.787 129.593 31.169 158.976C36.1508 186.173 51.2461 201.873 61.6305 199.071C61.5556 199.309 61.5063 199.571 61.4853 199.843L61.1678 204.68C61.1436 205.048 61.1714 205.422 61.2486 205.766C61.3257 206.109 61.4497 206.411 61.6087 206.643C61.7677 206.874 61.9565 207.027 62.1571 207.088C62.3577 207.149 62.5634 207.115 62.7548 206.99L68.104 203.487C68.2954 203.361 68.4661 203.149 68.5999 202.869C68.7336 202.589 68.826 202.252 68.8683 201.889C68.9106 201.525 68.9013 201.148 68.8413 200.793C68.7814 200.439 68.6728 200.118 68.5258 199.861L66.5976 196.495C66.529 196.38 66.4533 196.281 66.372 196.199C75.634 187.083 82.5436 157.894 77.551 130.638Z" fill="#F2F2F2"/>
<path id="Vector_2" d="M58.0666 109.021C62.5361 113.234 65.9494 120.42 67.602 129.096C69.2545 137.771 69.0202 147.275 66.9473 155.644C66.4844 157.569 68.1866 158.581 68.6464 156.669C70.8228 147.613 71.0442 137.39 69.2661 128.048C67.4881 118.707 63.842 110.939 59.0592 106.301C58.0497 105.324 57.0496 108.037 58.0666 109.021Z" fill="white"/>
<path id="Vector_3" d="M295.448 87.8092C290.067 58.427 273.446 42.0969 262.513 48.777C251.579 55.4572 243.684 86.7648 249.067 116.147C254.048 143.344 269.144 159.045 279.528 156.243C279.453 156.481 279.404 156.742 279.383 157.014L279.065 161.851C279.041 162.22 279.069 162.593 279.146 162.937C279.223 163.281 279.347 163.582 279.506 163.814C279.665 164.045 279.854 164.199 280.055 164.259C280.255 164.32 280.461 164.286 280.652 164.161L286.001 160.658C286.193 160.533 286.364 160.32 286.497 160.04C286.631 159.761 286.724 159.423 286.766 159.06C286.808 158.697 286.799 158.32 286.739 157.965C286.679 157.61 286.57 157.289 286.423 157.032L284.495 153.666C284.426 153.552 284.351 153.452 284.269 153.37C293.531 144.254 300.441 115.065 295.448 87.8092Z" fill="#F2F2F2"/>
<path id="Vector_4" d="M275.965 66.192C280.435 70.4048 283.848 77.5907 285.5 86.2665C287.153 94.9424 286.919 104.446 284.846 112.815C284.383 114.74 286.085 115.752 286.545 113.84C288.721 104.784 288.943 94.5604 287.165 85.2191C285.387 75.8778 281.74 68.1095 276.958 63.4721C275.948 62.4951 274.948 65.2078 275.965 66.192Z" fill="white"/>
<path id="Vector_5" d="M168.911 40.5187C163.529 11.1365 146.909 -5.19367 135.975 1.48648C125.042 8.16663 117.147 39.4743 122.529 68.8565C127.511 96.0534 142.606 111.754 152.991 108.952C152.916 109.19 152.867 109.452 152.846 109.724L152.528 114.56C152.504 114.929 152.532 115.303 152.609 115.647C152.686 115.99 152.81 116.292 152.969 116.523C153.128 116.755 153.317 116.908 153.517 116.969C153.718 117.03 153.924 116.996 154.115 116.87L159.464 113.367C159.656 113.242 159.826 113.03 159.96 112.75C160.094 112.47 160.186 112.133 160.229 111.769C160.271 111.406 160.262 111.029 160.202 110.674C160.142 110.319 160.033 109.998 159.886 109.742L157.958 106.376C157.889 106.261 157.814 106.162 157.732 106.08C166.994 96.9637 173.904 67.7747 168.911 40.5187Z" fill="#F2F2F2"/>
<path id="Vector_6" d="M149.428 18.9019C153.897 23.1147 157.311 30.3007 158.963 38.9765C160.616 47.6523 160.382 57.1558 158.309 65.5252C157.846 67.4496 159.548 68.4616 160.008 66.5498C162.184 57.4941 162.406 47.2704 160.627 37.9291C158.849 28.5877 155.203 20.8194 150.421 16.182C149.411 15.2051 148.411 17.9177 149.428 18.9019Z" fill="white"/>
<path id="Vector_7" d="M141.918 181.9C142.626 181.9 143.2 180.852 143.2 179.559C143.2 178.265 142.626 177.217 141.918 177.217C141.21 177.217 140.636 178.265 140.636 179.559C140.636 180.852 141.21 181.9 141.918 181.9Z" fill="#CCCCCC"/>
<path id="Vector_8" d="M139.185 275.838C140.584 275.838 141.718 273.767 141.718 271.212C141.718 268.657 140.584 266.586 139.185 266.586C137.786 266.586 136.652 268.657 136.652 271.212C136.652 273.767 137.786 275.838 139.185 275.838Z" fill="#CCCCCC"/>
<path id="Vector_9" d="M96.7801 258.025C97.5884 258.025 98.2437 256.828 98.2437 255.352C98.2437 253.876 97.5884 252.679 96.7801 252.679C95.9717 252.679 95.3164 253.876 95.3164 255.352C95.3164 256.828 95.9717 258.025 96.7801 258.025Z" fill="#CCCCCC"/>
<path id="Vector_10" d="M119.016 214.256C119.891 214.256 120.601 212.96 120.601 211.361C120.601 209.762 119.891 208.466 119.016 208.466C118.14 208.466 117.431 209.762 117.431 211.361C117.431 212.96 118.14 214.256 119.016 214.256Z" fill="#CCCCCC"/>
<path id="Vector_11" d="M197.013 383.74C197.721 383.74 198.295 382.692 198.295 381.398C198.295 380.105 197.721 379.057 197.013 379.057C196.305 379.057 195.73 380.105 195.73 381.398C195.73 382.692 196.305 383.74 197.013 383.74Z" fill="#CCCCCC"/>
<path id="Vector_12" d="M155.02 335.589C156.419 335.589 157.553 333.518 157.553 330.963C157.553 328.408 156.419 326.337 155.02 326.337C153.621 326.337 152.487 328.408 152.487 330.963C152.487 333.518 153.621 335.589 155.02 335.589Z" fill="#CCCCCC"/>
<path id="Vector_13" d="M183.864 274.692C184.672 274.692 185.328 273.496 185.328 272.019C185.328 270.543 184.672 269.346 183.864 269.346C183.056 269.346 182.4 270.543 182.4 272.019C182.4 273.496 183.056 274.692 183.864 274.692Z" fill="#CCCCCC"/>
<path id="Vector_14" d="M193.489 332.145C194.365 332.145 195.074 330.849 195.074 329.25C195.074 327.651 194.365 326.355 193.489 326.355C192.614 326.355 191.904 327.651 191.904 329.25C191.904 330.849 192.614 332.145 193.489 332.145Z" fill="#CCCCCC"/>
<path id="Vector_15" d="M278.864 481.239C280.263 479.101 278.373 470.771 274.643 462.635C270.913 454.499 266.755 449.637 265.357 451.775C263.958 453.914 265.848 462.243 269.578 470.379C273.308 478.516 277.466 483.378 278.864 481.239Z" fill="#2F2E41"/>
<path id="Vector_16" d="M249.73 498.263C261.351 498.263 270.771 481.058 270.771 459.835C270.771 438.612 261.351 421.407 249.73 421.407C238.11 421.407 228.689 438.612 228.689 459.835C228.689 481.058 238.11 498.263 249.73 498.263Z" fill="#2F2E41"/>
<path id="Vector_17" d="M258.637 489.993H252.245V510.91H258.637V489.993Z" fill="#2F2E41"/>
<path id="Vector_18" d="M245.852 489.993H239.46V510.91H245.852V489.993Z" fill="#2F2E41"/>
<path id="Vector_19" d="M253.31 514.801C256.252 514.801 258.637 513.167 258.637 511.153C258.637 509.138 256.252 507.504 253.31 507.504C250.368 507.504 247.983 509.138 247.983 511.153C247.983 513.167 250.368 514.801 253.31 514.801Z" fill="#2F2E41"/>
<path id="Vector_20" d="M240.526 514.314C243.468 514.314 245.853 512.681 245.853 510.666C245.853 508.651 243.468 507.018 240.526 507.018C237.584 507.018 235.199 508.651 235.199 510.666C235.199 512.681 237.584 514.314 240.526 514.314Z" fill="#2F2E41"/>
<path id="Vector_21" d="M243.124 411.53C245.003 397.711 253.296 389.579 261.647 393.367C269.999 397.154 275.246 411.427 273.367 425.245C271.489 439.064 265.255 439.108 256.904 435.321C248.552 431.534 241.245 425.349 243.124 411.53Z" fill="#E6E6E6"/>
<path id="Vector_22" d="M235.538 450.238C236.319 447.228 232.697 441.101 227.448 436.554C222.198 432.007 217.308 430.76 216.527 433.77C215.745 436.78 219.367 442.907 224.617 447.454C229.867 452.001 234.756 453.248 235.538 450.238Z" fill="#2F2E41"/>
<path id="Vector_23" d="M246.585 464.538C250.46 464.538 253.6 458.802 253.6 451.726C253.6 444.65 250.46 438.914 246.585 438.914C242.711 438.914 239.57 444.65 239.57 451.726C239.57 458.802 242.711 464.538 246.585 464.538Z" fill="white"/>
<path id="Vector_24" d="M243.702 451.405C244.993 451.405 246.04 449.493 246.04 447.134C246.04 444.775 244.993 442.863 243.702 442.863C242.41 442.863 241.363 444.775 241.363 447.134C241.363 449.493 242.41 451.405 243.702 451.405Z" fill="#3F3D56"/>
<path id="Vector_25" d="M250.986 478.419C251.096 479.522 251.086 480.655 250.956 481.751C250.827 482.847 250.58 483.886 250.23 484.809C249.881 485.731 249.435 486.519 248.919 487.127C248.403 487.734 247.827 488.151 247.222 488.352C246.618 488.552 245.998 488.534 245.398 488.297C244.797 488.061 244.229 487.61 243.724 486.972C243.218 486.334 242.787 485.52 242.454 484.577C242.122 483.635 241.894 482.582 241.784 481.478L241.782 481.462C241.322 476.82 243.287 475.177 245.829 474.337C248.37 473.497 250.526 473.777 250.986 478.419Z" fill="white"/>
<path id="Vector_26" d="M76.7436 432.97C78.818 423.058 79.1185 414.058 77.4147 412.869C75.7109 411.679 72.648 418.751 70.5735 428.663C68.4991 438.575 68.1986 447.575 69.9024 448.764C71.6062 449.953 74.6691 442.882 76.7436 432.97Z" fill="#2F2E41"/>
<path id="Vector_27" d="M54.21 498.262C65.8306 498.262 75.251 481.058 75.251 459.834C75.251 438.611 65.8306 421.407 54.21 421.407C42.5893 421.407 33.1689 438.611 33.1689 459.834C33.1689 481.058 42.5893 498.262 54.21 498.262Z" fill="#2F2E41"/>
<path id="Vector_28" d="M51.0143 489.993H44.6221V510.91H51.0143V489.993Z" fill="#2F2E41"/>
<path id="Vector_29" d="M63.7984 489.993H57.4062V510.91H63.7984V489.993Z" fill="#2F2E41"/>
<path id="Vector_30" d="M49.9489 514.801C52.8909 514.801 55.2758 513.167 55.2758 511.153C55.2758 509.138 52.8909 507.504 49.9489 507.504C47.007 507.504 44.6221 509.138 44.6221 511.153C44.6221 513.167 47.007 514.801 49.9489 514.801Z" fill="#2F2E41"/>
<path id="Vector_31" d="M62.7331 514.314C65.675 514.314 68.0599 512.681 68.0599 510.666C68.0599 508.651 65.675 507.018 62.7331 507.018C59.7912 507.018 57.4062 508.651 57.4062 510.666C57.4062 512.681 59.7912 514.314 62.7331 514.314Z" fill="#2F2E41"/>
<path id="Vector_32" d="M54.743 463.24C58.7146 463.24 61.9342 457.36 61.9342 450.106C61.9342 442.853 58.7146 436.973 54.743 436.973C50.7714 436.973 47.5518 442.853 47.5518 450.106C47.5518 457.36 50.7714 463.24 54.743 463.24Z" fill="white"/>
<path id="Vector_33" d="M54.7428 454.484C56.0667 454.484 57.1399 452.524 57.1399 450.106C57.1399 447.688 56.0667 445.728 54.7428 445.728C53.4189 445.728 52.3457 447.688 52.3457 450.106C52.3457 452.524 53.4189 454.484 54.7428 454.484Z" fill="#3F3D56"/>
<path id="Vector_34" d="M33.7993 424.098C32.1004 410.202 37.5313 396.16 45.9296 392.736C54.328 389.311 62.5134 397.799 64.2124 411.695C65.9114 425.591 60.3455 430.716 51.9472 434.141C43.5488 437.566 35.4983 437.994 33.7993 424.098Z" fill="#E6E6E6"/>
<path id="Vector_35" d="M40.0163 450.238C40.798 447.228 37.1758 441.101 31.926 436.554C26.6762 432.007 21.7868 430.76 21.0051 433.77C20.2235 436.78 23.8456 442.907 29.0954 447.454C34.3452 452.001 39.2347 453.248 40.0163 450.238Z" fill="#2F2E41"/>
<path id="Vector_36" d="M43.875 473.698C43.875 477.459 49.1775 484.886 55.0614 484.886C60.9453 484.886 66.462 474.297 66.462 470.536C66.462 466.775 60.9452 471.266 55.0614 471.266C49.1775 471.266 43.875 469.937 43.875 473.698Z" fill="white"/>
<path id="Vector_37" d="M154.717 461.679C166.337 461.679 175.758 444.474 175.758 423.251C175.758 402.028 166.337 384.824 154.717 384.824C143.096 384.824 133.676 402.028 133.676 423.251C133.676 444.474 143.096 461.679 154.717 461.679Z" fill="#2F2E41"/>
<path id="Vector_38" d="M151.52 453.41H145.128V474.327H151.52V453.41Z" fill="#2F2E41"/>
<path id="Vector_39" d="M164.305 453.41H157.913V474.327H164.305V453.41Z" fill="#2F2E41"/>
<path id="Vector_40" d="M150.455 478.218C153.397 478.218 155.782 476.584 155.782 474.57C155.782 472.555 153.397 470.921 150.455 470.921C147.513 470.921 145.128 472.555 145.128 474.57C145.128 476.584 147.513 478.218 150.455 478.218Z" fill="#2F2E41"/>
<path id="Vector_41" d="M163.24 477.732C166.182 477.732 168.567 476.098 168.567 474.083C168.567 472.068 166.182 470.435 163.24 470.435C160.298 470.435 157.913 472.068 157.913 474.083C157.913 476.098 160.298 477.732 163.24 477.732Z" fill="#2F2E41"/>
<path id="Vector_42" d="M134.306 387.515C132.607 373.619 138.038 359.577 146.436 356.153C154.835 352.728 163.02 361.216 164.719 375.112C166.418 389.008 160.852 394.134 152.454 397.558C144.056 400.983 136.005 401.411 134.306 387.515Z" fill="#9CF0C7"/>
<path id="Vector_43" d="M177.39 406.459C181.947 398.131 184.48 389.261 183.049 386.649C181.617 384.036 176.763 388.67 172.206 396.998C167.649 405.327 165.116 414.197 166.547 416.809C167.979 419.422 172.833 414.788 177.39 406.459Z" fill="#2F2E41"/>
<path id="Vector_44" d="M137.757 419.486C139.189 416.873 136.655 408.004 132.098 399.675C127.541 391.346 122.687 386.713 121.255 389.325C119.824 391.938 122.357 400.807 126.914 409.136C131.471 417.465 136.325 422.098 137.757 419.486Z" fill="#2F2E41"/>
<path id="Vector_45" d="M282.636 179.365C281.937 139.963 267.161 108.861 249.631 109.898C210.618 112.009 209.666 242.669 247.331 252.054L246.534 263.632L258.167 262.944L256.961 251.485C272.113 245.369 283.269 215.088 282.636 179.365Z" fill="#FF6584"/>
<path id="Vector_46" d="M230.231 201.211L225.836 201.471C224.114 186.513 223.841 171.119 225.03 155.989L229.425 155.729C227.802 171.568 228.07 186.728 230.231 201.211Z" fill="white"/>
<path id="Vector_47" d="M258.737 251.305L245.553 252.084L245.648 257.435L258.832 256.656L258.737 251.305Z" fill="#3F3D56"/>
<path id="Vector_48" d="M220.443 456.194L219.115 455.059L251.757 252.896L253.084 254.031L220.443 456.194Z" fill="#3F3D56"/>
<path id="Vector_49" d="M309.652 212.685C317.623 176.048 310.872 136.76 294.574 124.931C258.342 98.4255 228.911 217.53 261.395 253.594L258.133 263.628L268.949 271.478L270.348 260.092C285.578 265.531 302.424 245.9 309.652 212.685Z" fill="#9CF0C7"/>
<path id="Vector_50" d="M256.828 194.511L252.742 191.546C254.432 176.575 257.546 162.262 261.944 149.256L266.03 152.222C261.08 165.56 258.013 179.657 256.828 194.511Z" fill="white"/>
<path id="Vector_51" d="M259.757 252.325L258.675 257.3L270.933 266.197L272.016 261.222L259.757 252.325Z" fill="#3F3D56"/>
<path id="Vector_52" d="M220.185 450.872L218.911 449.548L264.483 259.612L265.757 260.936L220.185 450.872Z" fill="#3F3D56"/>
<path id="Vector_53" d="M61.9457 181.911C53.3211 145.772 33.2958 126.849 17.218 139.647C-18.6041 167.948 6.95778 289.996 43.8553 273.287L45.4578 284.582L56.1275 276.089L52.6876 266.256C65.5284 250.343 69.7649 214.676 61.9457 181.911Z" fill="#9CF0C7"/>
<path id="Vector_54" d="M17.6746 237.59L13.6438 240.799C9.01533 228.064 5.64586 213.944 3.68848 199.083L7.71931 195.875C9.41692 211.686 12.7353 225.592 17.6746 237.59Z" fill="white"/>
<path id="Vector_55" d="M54.3015 264.89L42.209 274.515L43.3802 279.423L55.4727 269.797L54.3015 264.89Z" fill="#3F3D56"/>
<path id="Vector_56" d="M82.2796 456.711C82.091 456.796 81.8915 456.742 81.725 456.558C81.5586 456.375 81.4388 456.079 81.392 455.734L49.5342 271.377L50.9567 270.732L82.8144 455.09C82.8376 455.26 82.8422 455.438 82.8278 455.611C82.8135 455.785 82.7805 455.952 82.7309 456.103C82.6812 456.253 82.6158 456.385 82.5383 456.489C82.4609 456.593 82.373 456.669 82.2796 456.711Z" fill="#3F3D56"/>
<path id="Vector_57" d="M90.7932 515H14.0891C13.9596 515 13.8353 514.906 13.7437 514.739C13.6521 514.571 13.6006 514.344 13.6006 514.108C13.6006 513.871 13.6521 513.644 13.7437 513.477C13.8353 513.309 13.9596 513.215 14.0891 513.215H90.7932C90.9228 513.215 91.0471 513.309 91.1387 513.477C91.2303 513.644 91.2818 513.871 91.2818 514.108C91.2818 514.344 91.2303 514.571 91.1387 514.739C91.0471 514.906 90.9228 515 90.7932 515Z" fill="#CCCCCC"/>
<path id="Vector_58" d="M285.73 515H209.026C208.896 515 208.772 514.906 208.68 514.739C208.589 514.571 208.537 514.344 208.537 514.108C208.537 513.871 208.589 513.644 208.68 513.477C208.772 513.309 208.896 513.215 209.026 513.215H285.73C285.859 513.215 285.984 513.309 286.075 513.477C286.167 513.644 286.218 513.871 286.218 514.108C286.218 514.344 286.167 514.571 286.075 514.739C285.984 514.906 285.859 515 285.73 515Z" fill="#CCCCCC"/>
<path id="Vector_59" d="M194.368 478.417H117.664C117.535 478.417 117.41 478.323 117.319 478.156C117.227 477.988 117.176 477.761 117.176 477.525C117.176 477.288 117.227 477.061 117.319 476.894C117.41 476.726 117.535 476.632 117.664 476.632H194.368C194.498 476.632 194.622 476.726 194.714 476.894C194.805 477.061 194.857 477.288 194.857 477.525C194.857 477.761 194.805 477.988 194.714 478.156C194.622 478.323 194.498 478.417 194.368 478.417Z" fill="#CCCCCC"/>
<path id="Vector_60" d="M153.831 430.939C157.803 430.939 161.022 425.059 161.022 417.806C161.022 410.552 157.803 404.672 153.831 404.672C149.859 404.672 146.64 410.552 146.64 417.806C146.64 425.059 149.859 430.939 153.831 430.939Z" fill="white"/>
<path id="Vector_61" d="M153.832 422.183C155.156 422.183 156.229 420.223 156.229 417.806C156.229 415.388 155.156 413.428 153.832 413.428C152.508 413.428 151.435 415.388 151.435 417.806C151.435 420.223 152.508 422.183 153.832 422.183Z" fill="#3F3D56"/>
<path id="Vector_62" d="M159.54 442.095C159.762 444.324 159.49 446.623 158.784 448.485C158.078 450.348 156.996 451.623 155.776 452.028C154.556 452.434 153.297 451.938 152.277 450.649C151.257 449.36 150.559 447.384 150.337 445.155L150.336 445.138C149.876 440.497 151.841 438.854 154.382 438.014C156.924 437.174 159.079 437.454 159.54 442.095Z" fill="white"/>
</g>
<defs>
<clipPath id="clip0_87_185">
<rect width="313" height="515" fill="white"/>
</clipPath>
</defs>
</svg>
