<svg width="108" height="69" viewBox="0 0 108 69" fill="none" xmlns="http://www.w3.org/2000/svg">
<path d="M52.5148 0.160843C51.3589 0.474095 50.8104 0.863543 49.722 2.09962C48.5492 3.44575 48.1189 4.72416 48.2117 6.56133C48.2876 8.11912 48.7348 9.23667 49.7726 10.4643C50.0932 10.8368 50.5404 11.2855 50.7682 11.4548C51.2323 11.7935 52.1942 12.2761 52.4136 12.2761C52.4895 12.2761 52.5739 12.3099 52.5992 12.3523C52.6836 12.4877 46.3301 34.4492 46.0264 35.0926C45.6214 35.9392 45.2839 36.3626 44.8367 36.5827C44.4907 36.7435 44.4148 36.752 44.1111 36.6673C43.647 36.5234 43.0648 35.9223 42.5501 35.0503C42.3223 34.6524 39.6561 31.1135 36.627 27.1851L31.1257 20.0311L31.5139 19.701C33.2773 18.1855 34.1717 16.4245 34.1717 14.4773C34.1717 13.0211 33.7751 11.912 32.8301 10.7352C31.7164 9.34673 30.822 8.7033 29.5479 8.37311C28.4257 8.08526 27.3289 8.22072 26.1561 8.78796C25.6667 9.02501 25.3714 9.2536 24.8145 9.82084C23.667 10.9977 23.0511 11.9882 22.7726 13.1227C22.6292 13.7238 22.6292 15.2308 22.7726 15.8319C22.9329 16.4838 23.4561 17.5844 23.8864 18.1686C24.8651 19.5062 25.9957 20.319 27.2951 20.6323C27.6242 20.7084 27.8942 20.7762 27.9026 20.7846C27.9279 20.8016 26.2657 37.4124 26.1898 37.8865C26.0886 38.513 25.7342 39.512 25.4811 39.8591C24.8482 40.7396 23.9792 40.6803 22.6545 39.6644C22.3339 39.4189 19.4061 37.4716 16.1576 35.3466C12.9092 33.2216 10.2007 31.4267 10.1417 31.3675C10.0489 31.2828 10.0742 31.1897 10.3273 30.8341C11.5254 29.1662 11.8039 26.6179 10.9939 24.6876C10.2936 23.0028 8.68199 21.5212 7.04512 21.0302C6.42918 20.8524 5.21418 20.827 4.55605 20.9878C4.30293 21.0471 3.77137 21.2503 3.3748 21.4365C2.77574 21.7329 2.53105 21.9107 1.85605 22.5964C1.23168 23.2229 0.970117 23.57 0.700117 24.0865C0.126367 25.1956 0.0419922 25.5935 0.0419922 27.092C0.0419922 28.235 0.0673047 28.4889 0.244492 29.0392C1.07137 31.6977 3.23137 33.3824 5.82168 33.3824C6.74137 33.3909 7.26449 33.2554 8.08293 32.8067C8.37824 32.6374 8.63137 32.5104 8.64824 32.5273C8.69043 32.5866 10.9686 36.8959 11.8798 38.6484C14.6389 43.9737 15.9382 47.7158 16.6217 52.2791C16.6723 52.6008 16.7314 52.9734 16.7567 53.1088L16.8073 53.3374H53.9154H91.0151L91.0742 52.8972C91.1754 52.0929 91.7154 49.5107 92.0192 48.3677C92.6689 45.8786 93.7151 43.1948 95.1748 40.2232C96.0439 38.4537 99.0392 32.6882 99.1489 32.5612C99.1826 32.5189 99.326 32.5697 99.461 32.6713C100.136 33.1454 101.52 33.501 102.38 33.4078C103.849 33.2385 104.929 32.7221 105.975 31.6638C106.371 31.2659 106.819 30.724 106.979 30.4616C108.641 27.6169 108.067 24.3235 105.528 22.1816C104.878 21.6313 103.984 21.1572 103.275 20.9878C102.676 20.8439 101.587 20.8439 100.997 20.9878C99.9251 21.2503 98.651 22.0969 97.8326 23.0959C96.7864 24.3659 96.3814 25.6189 96.4657 27.3629C96.5248 28.7429 96.9045 29.9113 97.5964 30.8849C97.8073 31.1897 97.8495 31.2997 97.7651 31.3759C97.7145 31.4267 94.9807 33.2216 91.707 35.3635C88.4332 37.514 85.4885 39.4697 85.1679 39.7152C84.417 40.2824 84.012 40.4687 83.4804 40.4687C82.6873 40.4687 82.1557 39.8845 81.8435 38.6569C81.7254 38.1743 81.4385 35.5159 80.8732 29.4372C80.4345 24.7384 80.0717 20.8608 80.0717 20.8185C80.0717 20.7762 80.1307 20.7423 80.1898 20.7423C80.5104 20.7423 81.7001 20.2851 82.1557 19.9888C83.1514 19.3454 84.2314 18.0331 84.6785 16.9156C85.2607 15.4932 85.286 13.5714 84.7376 12.1914C84.4085 11.3617 84.0035 10.7945 83.1092 9.89704C82.2064 8.99115 81.5229 8.58477 80.4514 8.33078C79.3123 8.06833 77.9285 8.31385 76.8064 8.99115C76.2157 9.34673 75.102 10.4643 74.6295 11.1754C73.3892 13.0634 73.3976 15.9419 74.6632 17.8807C75.0767 18.5242 75.8192 19.3284 76.4014 19.7856L76.7389 20.0396L76.4773 20.3698C74.0473 23.46 65.5761 34.6016 65.2639 35.1265C64.7914 35.9138 64.0995 36.6081 63.7029 36.6843C63.0532 36.8197 62.3698 36.1763 61.8804 34.9656C61.7792 34.7116 61.2392 32.9337 60.6823 31.0288C60.1254 29.1154 58.6742 24.1711 57.4592 20.0227C56.2526 15.8827 55.2823 12.4454 55.2992 12.3861C55.3245 12.3269 55.4004 12.2761 55.4679 12.2761C55.527 12.2761 55.8982 12.1237 56.2779 11.9289C57.1217 11.5056 58.2776 10.405 58.7586 9.56685C59.7373 7.88207 59.9314 5.61311 59.2564 3.89446C58.632 2.30281 57.0373 0.702684 55.6114 0.245506C54.8014 -0.0169479 53.3248 -0.0592792 52.5148 0.160843Z" fill="#E5B80B"/>
<path d="M16.79 63.4123V69H53.8729H90.9557L90.9725 63.4123L90.9979 57.8245H53.8982H16.79V63.4123Z" fill="#E5B80B"/>
</svg>
