<svg width="698" height="526" viewBox="0 0 698 526" fill="none" xmlns="http://www.w3.org/2000/svg">
<g id="htmlImg 1">
<path id="background" d="M698 282.426V503.396C697.992 509.389 695.582 515.134 691.298 519.372C687.014 523.609 681.205 525.993 675.146 526H503.778L505.37 524.008L695.985 284.957L698 282.426Z" fill="#9CF0C7"/>
<g id="css">
<path id="Vector" d="M162.774 408.892L111.691 407.295C104.606 407.073 96.6384 407.084 91.585 410.706C85.8496 414.816 86.718 422.098 91.48 426.821C96.2419 431.544 103.846 434.243 111.308 436.437C150.956 448.092 194.835 450.458 237.441 447.821C280.046 445.184 321.775 437.728 363.298 430.297C367.236 429.593 371.7 428.579 373.305 425.868C374.859 423.246 372.826 420.083 369.669 418.389C366.511 416.694 362.508 416.123 358.646 415.618C288.698 406.527 217.993 404.532 147.634 409.665" fill="#9CF0C7"/>
<path id="Vector_2" d="M254.554 370.033V358.078C245.783 358.201 214.396 357.99 206.208 358.079C205.598 399.861 201.863 391.676 236.472 391.839C238.063 391.845 239.587 392.473 240.71 393.587C241.833 394.701 242.465 396.21 242.467 397.783V397.962C242.467 399.538 241.834 401.049 240.708 402.164C239.581 403.278 238.053 403.904 236.459 403.904H206.208V415.859H254.554C254.622 415.819 254.505 404.315 254.554 403.904C256.598 369.271 252.553 381.727 223.163 380.338C221.848 380.272 220.61 379.708 219.703 378.763C218.797 377.818 218.292 376.565 218.294 375.263V375.113C218.294 373.766 218.835 372.474 219.798 371.521C220.762 370.568 222.068 370.033 223.431 370.033H254.554Z" fill="#3F3D56"/>
<path id="Vector_3" d="M313.98 370.033V358.078C305.209 358.201 273.821 357.99 265.633 358.079C265.019 400.224 261.224 391.53 296.809 391.845C298.162 391.859 299.455 392.4 300.407 393.351C301.359 394.302 301.893 395.587 301.893 396.925C301.893 397.553 301.893 398.196 301.893 398.825C301.893 399.492 301.76 400.153 301.502 400.769C301.244 401.385 300.865 401.945 300.388 402.417C299.911 402.889 299.345 403.263 298.722 403.518C298.099 403.773 297.431 403.904 296.756 403.904H265.633V415.859H313.98C314.047 415.819 313.931 404.315 313.98 403.904C316.024 369.271 311.979 381.727 282.589 380.338C281.274 380.272 280.035 379.708 279.129 378.763C278.223 377.818 277.718 376.565 277.72 375.263V375.113C277.72 373.766 278.261 372.474 279.224 371.521C280.188 370.568 281.494 370.033 282.856 370.033H313.98Z" fill="#3F3D56"/>
<path id="Vector_4" d="M192.106 370.033V358.079H143.759C143.725 368.741 143.784 396.963 143.759 407.889C134.283 423.757 188.12 412.771 192.108 415.863C192.106 415.859 192.106 403.904 192.106 403.904C155.321 403.714 154.397 410.525 155.58 377.575C155.651 375.551 156.514 373.635 157.985 372.228C159.457 370.821 161.424 370.034 163.47 370.032C174.105 370.033 192.106 370.033 192.106 370.033Z" fill="#3F3D56"/>
</g>
<g id="html">
<path id="Vector_5" d="M287.668 266.101L236.585 264.769C229.5 264.585 221.533 264.594 216.48 267.613C210.744 271.039 211.613 277.109 216.375 281.046C221.136 284.983 228.74 287.233 236.203 289.061C275.851 298.777 319.73 300.75 362.335 298.551C404.941 296.353 446.67 290.138 488.192 283.944C492.131 283.356 496.594 282.511 498.2 280.252C499.754 278.066 497.721 275.43 494.563 274.017C491.406 272.604 487.402 272.128 483.541 271.708C413.474 264.126 342.881 262.466 272.529 266.745" fill="#9CF0C7"/>
<path id="Vector_6" d="M278.726 213.628C277.903 232.084 284.761 237.893 261.099 235.542C259.5 224.532 267.607 209.252 249.013 213.132C252.738 221.119 238.636 281.715 261.096 270.906C262.357 252.701 254.043 244.716 278.727 247.501C280.706 258.755 271.467 275.316 290.812 271.406C287.088 263.415 301.19 202.825 278.726 213.628Z" fill="#3F3D56"/>
<path id="Vector_7" d="M402.614 213.628C404.273 214.641 387.414 232.28 387.051 233.726C386.545 232.492 370.454 215.234 372.397 213.628C350.007 202.685 363.961 263.633 360.306 271.41C360.311 271.408 372.397 271.408 372.397 271.408V233.554C389.386 256.217 386.231 252.403 402.614 232.441L402.614 271.408C425.003 282.355 411.05 221.399 414.704 213.625C414.7 213.628 402.614 213.628 402.614 213.628Z" fill="#3F3D56"/>
<path id="Vector_8" d="M349.231 213.628H300.885C298.044 230.386 307.437 224.766 319.016 225.582L319.015 271.408H331.101V225.582C342.627 224.807 352.108 230.312 349.231 213.628Z" fill="#3F3D56"/>
<path id="Vector_9" d="M436.859 259.454C434.068 244.303 434.068 228.778 436.859 213.628H424.773C424.842 221.202 424.751 251.765 424.758 265.741C424.757 267.25 425.363 268.697 426.44 269.764C427.518 270.831 428.98 271.431 430.505 271.432C442.682 271.448 465.929 271.36 473.119 271.408L473.119 259.454H436.859Z" fill="#3F3D56"/>
</g>
<g id="character">
<path id="Vector_10" d="M573.501 515.607L563.528 515.606L558.784 477.561L573.503 477.562L573.501 515.607Z" fill="#FFB6B6"/>
<path id="Vector_11" d="M573.851 525.897L543.185 525.896V525.512C543.185 522.381 544.442 519.379 546.681 517.165C548.919 514.951 551.955 513.707 555.121 513.707H555.122L560.723 509.503L571.175 513.707L573.852 513.707L573.851 525.897Z" fill="#2F2E41"/>
<path id="Vector_12" d="M608.753 515.607L598.78 515.606L594.036 477.561L608.755 477.562L608.753 515.607Z" fill="#FFB6B6"/>
<path id="Vector_13" d="M609.104 525.897L578.438 525.896V525.512C578.438 522.381 579.695 519.379 581.934 517.165C584.172 514.951 587.208 513.707 590.374 513.707H590.375L595.976 509.503L606.428 513.707L609.105 513.707L609.104 525.897Z" fill="#2F2E41"/>
<path id="Vector_14" d="M548.669 308.308C548.669 308.308 539.074 337.455 540.845 341.292C542.617 345.128 545.638 342.139 542.617 345.128C539.595 348.117 536.957 344.94 539.787 350.015C542.617 355.09 546.903 396.871 548.789 398.893C550.674 400.916 553.267 400.97 550.963 402.935C548.66 404.901 545.638 400.916 548.66 404.901C551.681 408.885 559.7 500.812 559.7 500.812H575.363C575.363 500.812 579.264 496.364 577.056 493.469C574.847 490.575 577.25 489.459 577.056 487.526C576.862 485.594 577.596 481.427 577.733 479.526C577.869 477.624 580.516 432.327 574.157 406.161L585.753 356.339L591.552 416.556C591.552 416.556 585.09 467.066 591.552 483.303C591.552 483.303 586.342 487.594 588.652 490.081C590.963 492.567 592.977 490.575 590.963 492.567C588.948 494.56 593.985 501.533 593.985 501.533L611.107 500.537L620.799 406.161C620.799 406.161 622.432 396.319 620.799 394.633C619.165 392.946 619.165 398.923 619.165 392.946V384.976C619.165 384.976 626.468 335.958 626.342 333.071C626.215 330.185 614.129 309.264 614.129 309.264L548.669 308.308Z" fill="#2F2E41"/>
<path id="Vector_15" d="M599.313 190.423L574.311 188.723L566.829 200.39L548.812 207.636V265.112C550.686 270.677 551.655 276.501 551.682 282.367C551.613 293.818 548.638 307.306 549.668 310.261C559.74 339.151 615.137 310.261 615.137 310.261L614.13 279.378L615.497 209.584L604.177 200.654L599.313 190.423Z" fill="#E33720"/>
<path id="Vector_16" d="M547.656 320.785L545.932 302.613L535.299 302.138L537.813 321.287C537.168 322.228 536.801 323.328 536.754 324.463C536.706 325.599 536.98 326.725 537.545 327.715C538.109 328.706 538.941 329.52 539.948 330.068C540.955 330.616 542.097 330.876 543.244 330.817C544.392 330.758 545.5 330.384 546.445 329.737C547.389 329.09 548.133 328.194 548.591 327.152C549.049 326.11 549.204 324.962 549.039 323.837C548.874 322.712 548.395 321.655 547.656 320.785L547.656 320.785Z" fill="#FFB6B6"/>
<path id="Vector_17" d="M552.888 206.103L552.593 206.152C549.851 206.612 547.264 207.725 545.056 209.397C542.847 211.068 541.083 213.247 539.918 215.744C536.873 222.257 526.985 265.073 531.32 271.53C534.681 276.538 533.865 275.561 532.284 279.338C530.704 283.116 528.159 279.085 530.245 285.08C532.331 291.075 534.623 290.22 532.687 292.536C530.751 294.853 528.764 294.398 530.647 298.278C532.53 302.157 532.224 303.467 532.58 304.928C532.936 306.389 532.627 316.665 532.627 316.665C532.627 316.665 543.984 315.813 549.637 318.485C549.637 318.485 546.483 308.107 548.266 306.445C550.049 304.783 552.188 304.583 550.661 302.164C549.134 299.746 545.671 299.644 549.44 298.436C553.21 297.228 551.996 275.567 551.996 275.567C558.203 259.488 555.751 233.041 552.888 206.103Z" fill="#E33720"/>
<path id="Vector_18" d="M621.373 322.082L622.168 303.847L632.763 302.842L631.23 322.092C631.922 322.999 632.344 324.08 632.449 325.212C632.554 326.344 632.338 327.482 631.825 328.499C631.312 329.516 630.522 330.371 629.545 330.969C628.567 331.566 627.44 331.882 626.291 331.881C625.142 331.88 624.016 331.562 623.04 330.962C622.063 330.363 621.275 329.506 620.764 328.488C620.253 327.469 620.04 326.331 620.147 325.199C620.255 324.067 620.68 322.988 621.373 322.082V322.082Z" fill="#FFB6B6"/>
<path id="Vector_19" d="M610.298 207.807L610.595 207.841C613.356 208.163 615.997 209.147 618.288 210.706C620.579 212.265 622.452 214.353 623.743 216.788C627.117 223.141 637.789 266.169 635.176 272.074C632.739 277.581 632.84 276.227 634.61 279.921C636.381 283.615 638.718 279.462 636.94 285.554C635.163 291.645 632.83 290.905 634.882 293.122C636.934 295.339 638.894 294.786 637.211 298.755C635.529 302.723 635.901 304.016 635.62 305.493C635.339 306.97 636.173 317.217 636.173 317.217C636.173 317.217 624.786 316.933 619.277 319.884C619.277 319.884 621.898 309.361 620.032 307.791C618.166 306.22 616.02 306.126 617.421 303.635C618.823 301.143 622.277 300.868 618.45 299.851C614.624 298.833 614.732 277.138 614.732 277.138L610.298 207.807Z" fill="#E33720"/>
<path id="Vector_20" d="M587.425 185.069C598.195 185.069 606.927 176.433 606.927 165.78C606.927 155.127 598.195 146.491 587.425 146.491C576.654 146.491 567.923 155.127 567.923 165.78C567.923 176.433 576.654 185.069 587.425 185.069Z" fill="#FFB6B6"/>
<path id="Vector_21" d="M600.997 182.291C603.709 180.191 603.973 176.19 606.287 173.667C610.157 169.449 611.975 164.912 609.948 159.914C608.155 155.494 608.536 150.06 604.675 147.215C606.571 146.536 607.018 145.126 605.344 145.1C604.216 145.082 600.009 147.215 602.033 144.558C604.057 141.9 600.225 142.949 600.479 141.861C600.732 140.774 602.357 140.171 603.074 141.033C602.469 140.422 601.731 139.956 600.915 139.67C600.1 139.383 599.23 139.285 598.37 139.382C597.511 139.48 596.685 139.77 595.956 140.231C595.227 140.691 594.615 141.311 594.165 142.042C591.884 138.66 589.462 136.334 585.972 138.48C582.544 140.587 582.589 143.192 578.903 142.566C577.17 142.272 577.006 145.51 575.822 146.796C575.275 147.479 574.563 148.016 573.753 148.358C572.942 148.7 572.057 148.836 571.18 148.754C569.452 148.431 568.131 146.301 569.099 144.849L565.027 154.038L563.386 152.047C560.778 153.728 561.635 158.114 564.26 159.769C566.885 161.423 570.296 161.07 573.319 160.336C576.957 159.453 580.714 159.145 584.45 159.423C590.157 160.221 594.132 166.969 592.019 172.273C594.212 170.143 598.268 171.911 599.404 174.735C600.54 177.559 599.707 180.741 598.865 183.664" fill="#2F2E41"/>
</g>
</g>
</svg>
